; NON-PLATED HOLES START AT T1
; THROUGH (PLATED) HOLES START AT T100
M48
INCH
T100C0.038000
T101C0.036000
T102C0.040000
%
T100
X028545Y021089
X019545Y017089
X027545Y018089
X009545Y002089
X012545Y001089
X019545Y021089
X028545Y018089
X023545Y016089
X023545Y020089
X019545Y018089
X012545Y002089
X023545Y017089
X023545Y021089
X019545Y019089
X023545Y018089
X023545Y019089
X008545Y001089
X010545Y001089
X008545Y002089
X019545Y016089
X009545Y001089
X019545Y020089
X027545Y021089
X010545Y002089
T101
X013545Y016089
X013545Y010089
X013545Y020089
X011550Y020045
X010548Y020045
X013545Y007089
X007545Y014089
X013545Y017089
X013545Y011089
X009548Y020045
X011550Y021045
X010548Y021045
X013545Y008089
X007545Y015089
X013545Y018089
X013545Y012089
X009548Y021045
X007545Y006089
X013545Y009089
X007545Y016089
X013545Y019089
X007545Y010089
X013545Y013089
X007545Y020089
X007545Y007089
X007545Y017089
X007545Y011089
X013545Y014089
X007545Y008089
X007545Y018089
X007545Y012089
X013545Y015089
X007545Y009089
X007545Y019089
X013545Y006089
X007545Y013089
T102
X001545Y017089
X001545Y009089
X001545Y023089
X001545Y015089
X001545Y007089
X001545Y021089
X001545Y013089
X001545Y005089
X001545Y011089
X001545Y003089
X001545Y001089
X001545Y019089
T00
M30
